<svg width="48" height="48" viewBox="0 0 48 48" fill="none" xmlns="http://www.w3.org/2000/svg">
<circle cx="24" cy="24" r="24" fill="white"/>
<path fill-rule="evenodd" clip-rule="evenodd" d="M13.1016 18.3973C13.6118 17.2761 14.3302 16.2958 15.1761 15.4096C17.0896 13.4089 19.4058 12.1199 22.145 11.6835C25.9786 11.0725 29.4093 11.9789 32.3768 14.5301C32.5648 14.6913 32.6118 14.7852 32.4037 14.9867C31.3563 16.0139 30.3291 17.0545 29.2885 18.0884C29.1811 18.1958 29.1072 18.3234 28.9192 18.1488C26.3076 15.7587 22.0443 15.7856 19.2715 18.3637C18.3182 19.2499 17.6401 20.3107 17.197 21.5259C17.1298 21.4856 17.0627 21.4453 17.0023 21.3983C15.7065 20.4047 14.404 19.3976 13.1016 18.3973Z" fill="#D7282A"/>
<path fill-rule="evenodd" clip-rule="evenodd" d="M17.1704 26.4204C17.5463 27.3738 18.0096 28.2667 18.7011 29.0321C20.4601 30.9724 22.6354 31.8116 25.247 31.543C26.4622 31.4155 27.5633 31.0059 28.5972 30.3748C28.6979 30.4621 28.7919 30.5561 28.8926 30.6367C30.1011 31.5833 31.3096 32.5232 32.5181 33.4632C31.182 34.7321 29.611 35.5713 27.8386 36.0211C23.6693 37.0819 19.8156 36.4105 16.3983 33.7116C14.9817 32.5971 13.8739 31.2208 13.0884 29.5893C14.4513 28.5353 15.8075 27.4745 17.1704 26.4204Z" fill="#45AC43"/>
<path fill-rule="evenodd" clip-rule="evenodd" d="M32.5247 33.4631C31.3162 32.5232 30.1077 31.5765 28.8992 30.6366C28.7918 30.556 28.6978 30.4621 28.6038 30.3748C29.4229 29.7504 30.1077 29.0119 30.5575 28.0719C30.7388 27.696 30.8597 27.3066 30.9805 26.9105C31.0611 26.6352 31.0342 26.5278 30.6985 26.5345C28.6844 26.5546 26.6703 26.5412 24.6561 26.5412C24.2264 26.5412 24.2264 26.5412 24.2264 26.0981C24.2264 24.7352 24.2332 23.3656 24.2197 22.0027C24.2197 21.7408 24.2667 21.6401 24.5621 21.6401C28.2749 21.6536 31.9876 21.6469 35.7003 21.6469C35.9017 21.6469 36.0293 21.6603 36.0628 21.902C36.5261 25.1514 36.1568 28.2532 34.4515 31.12C33.9346 31.9995 33.3102 32.7984 32.5247 33.4631Z" fill="#5D7FBE"/>
<path fill-rule="evenodd" clip-rule="evenodd" d="M17.1702 26.4204C15.8073 27.4745 14.4511 28.5353 13.0882 29.5893C12.4235 28.354 12.0408 27.0247 11.8596 25.6416C11.5507 23.2448 11.8931 20.942 12.9069 18.7466C12.9606 18.6257 13.0345 18.5116 13.0949 18.3975C14.3974 19.3978 15.6999 20.4049 17.0023 21.4052C17.0628 21.4522 17.1299 21.4925 17.197 21.5328C16.6532 23.1575 16.6801 24.789 17.1702 26.4204Z" fill="#F4C300"/>
</svg>
